<svg width="200" height="200" viewBox="0 0 200 200" fill="none" xmlns="http://www.w3.org/2000/svg">
<rect x="24" y="24" width="152" height="152" rx="32" fill="#17212A"/>
<path d="M58 76C58 62.7452 68.7452 52 82 52H94V68H82C77.5817 68 74 71.5817 74 76V124C74 128.418 77.5817 132 82 132H94V148H82C68.7452 148 58 137.255 58 124V76Z" fill="#F4F1EA"/>
<path d="M106 52H120C133.255 52 144 62.7452 144 76V84H128V76C128 71.5817 124.418 68 120 68H106V52Z" fill="#9CC7B5"/>
<path d="M106 132H120C124.418 132 128 128.418 128 124V116H144V124C144 137.255 133.255 148 120 148H106V132Z" fill="#9CC7B5"/>
<path d="M95 91H105V109H95V91Z" fill="#F4F1EA"/>
<path d="M83 91H93V109H83V91Z" fill="#F4F1EA"/>
<path d="M107 91H117V109H107V91Z" fill="#9CC7B5"/>
</svg>
